<mxfile host="app.diagrams.net" modified="2023-12-19T04:39:18.782Z" agent="Mozilla/5.0 (Windows NT 10.0; Win64; x64) AppleWebKit/537.36 (KHTML, like Gecko) Chrome/120.0.0.0 Safari/537.36" etag="hMAGzXxrR4bWBxzsO9R4" version="22.1.11" type="github">
  <diagram name="Page-1" id="xBekOBYAkc2fZ3J3WRr2">
    <mxGraphModel dx="1984" dy="637" grid="1" gridSize="10" guides="1" tooltips="1" connect="1" arrows="1" fold="1" page="1" pageScale="1" pageWidth="850" pageHeight="1100" math="0" shadow="0">
      <root>
        <mxCell id="0" />
        <mxCell id="1" parent="0" />
        <mxCell id="MItrXDMZAQSZTM3Yo3Le-1" value="" style="rounded=0;whiteSpace=wrap;html=1;" vertex="1" parent="1">
          <mxGeometry x="20" y="30" width="450" height="450" as="geometry" />
        </mxCell>
        <mxCell id="MItrXDMZAQSZTM3Yo3Le-2" value="" style="rounded=0;whiteSpace=wrap;html=1;" vertex="1" parent="1">
          <mxGeometry x="80" y="60" width="300" height="300" as="geometry" />
        </mxCell>
        <mxCell id="MItrXDMZAQSZTM3Yo3Le-3" value="" style="outlineConnect=0;dashed=0;verticalLabelPosition=bottom;verticalAlign=top;align=center;html=1;shape=mxgraph.aws3.virtual_private_cloud;fillColor=#F58534;gradientColor=none;" vertex="1" parent="1">
          <mxGeometry x="90" y="70" width="79.5" height="54" as="geometry" />
        </mxCell>
        <mxCell id="MItrXDMZAQSZTM3Yo3Le-4" value="" style="sketch=0;points=[[0,0,0],[0.25,0,0],[0.5,0,0],[0.75,0,0],[1,0,0],[0,1,0],[0.25,1,0],[0.5,1,0],[0.75,1,0],[1,1,0],[0,0.25,0],[0,0.5,0],[0,0.75,0],[1,0.25,0],[1,0.5,0],[1,0.75,0]];outlineConnect=0;fontColor=#232F3E;fillColor=#ED7100;strokeColor=#ffffff;dashed=0;verticalLabelPosition=bottom;verticalAlign=top;align=center;html=1;fontSize=12;fontStyle=0;aspect=fixed;shape=mxgraph.aws4.resourceIcon;resIcon=mxgraph.aws4.ec2;" vertex="1" parent="1">
          <mxGeometry x="270" y="180" width="78" height="78" as="geometry" />
        </mxCell>
        <mxCell id="MItrXDMZAQSZTM3Yo3Le-9" value="Amazon EC2" style="text;html=1;strokeColor=none;fillColor=none;align=center;verticalAlign=middle;whiteSpace=wrap;rounded=0;" vertex="1" parent="1">
          <mxGeometry x="279" y="270" width="60" height="30" as="geometry" />
        </mxCell>
        <mxCell id="MItrXDMZAQSZTM3Yo3Le-12" value="AWS" style="text;strokeColor=none;fillColor=none;html=1;fontSize=24;fontStyle=1;verticalAlign=middle;align=center;" vertex="1" parent="1">
          <mxGeometry x="375" y="40" width="100" height="40" as="geometry" />
        </mxCell>
        <mxCell id="MItrXDMZAQSZTM3Yo3Le-14" value="" style="sketch=0;points=[[0,0,0],[0.25,0,0],[0.5,0,0],[0.75,0,0],[1,0,0],[0,1,0],[0.25,1,0],[0.5,1,0],[0.75,1,0],[1,1,0],[0,0.25,0],[0,0.5,0],[0,0.75,0],[1,0.25,0],[1,0.5,0],[1,0.75,0]];outlineConnect=0;fontColor=#232F3E;fillColor=#ED7100;strokeColor=#ffffff;dashed=0;verticalLabelPosition=bottom;verticalAlign=top;align=center;html=1;fontSize=12;fontStyle=0;aspect=fixed;shape=mxgraph.aws4.resourceIcon;resIcon=mxgraph.aws4.ec2;" vertex="1" parent="1">
          <mxGeometry x="160" y="170" width="78" height="78" as="geometry" />
        </mxCell>
        <mxCell id="MItrXDMZAQSZTM3Yo3Le-15" value="Amazon EC2" style="text;html=1;strokeColor=none;fillColor=none;align=center;verticalAlign=middle;whiteSpace=wrap;rounded=0;" vertex="1" parent="1">
          <mxGeometry x="169" y="260" width="60" height="30" as="geometry" />
        </mxCell>
        <mxCell id="MItrXDMZAQSZTM3Yo3Le-16" value="Private" style="text;html=1;strokeColor=none;fillColor=none;align=center;verticalAlign=middle;whiteSpace=wrap;rounded=0;" vertex="1" parent="1">
          <mxGeometry x="160" y="30" width="60" height="30" as="geometry" />
        </mxCell>
        <mxCell id="MItrXDMZAQSZTM3Yo3Le-19" value="VPC - 10.0.0.0/16" style="text;html=1;strokeColor=none;fillColor=none;align=center;verticalAlign=middle;whiteSpace=wrap;rounded=0;" vertex="1" parent="1">
          <mxGeometry x="209" y="30" width="130" height="30" as="geometry" />
        </mxCell>
        <mxCell id="MItrXDMZAQSZTM3Yo3Le-20" value="" style="rounded=0;whiteSpace=wrap;html=1;" vertex="1" parent="1">
          <mxGeometry x="-390" y="30" width="310" height="450" as="geometry" />
        </mxCell>
        <mxCell id="MItrXDMZAQSZTM3Yo3Le-21" value="&lt;b&gt;&lt;font style=&quot;font-size: 24px;&quot;&gt;Datacenter&lt;/font&gt;&lt;/b&gt;" style="text;html=1;strokeColor=none;fillColor=none;align=center;verticalAlign=middle;whiteSpace=wrap;rounded=0;" vertex="1" parent="1">
          <mxGeometry x="-190" y="45" width="60" height="30" as="geometry" />
        </mxCell>
        <mxCell id="MItrXDMZAQSZTM3Yo3Le-25" value="" style="image;html=1;image=img/lib/clip_art/computers/Server_Rack_128x128.png" vertex="1" parent="1">
          <mxGeometry x="-260" y="130" width="80" height="80" as="geometry" />
        </mxCell>
        <mxCell id="MItrXDMZAQSZTM3Yo3Le-26" value="" style="image;html=1;image=img/lib/clip_art/computers/Server_Rack_128x128.png" vertex="1" parent="1">
          <mxGeometry x="-350" y="130" width="80" height="80" as="geometry" />
        </mxCell>
        <mxCell id="MItrXDMZAQSZTM3Yo3Le-29" value="" style="image;html=1;image=img/lib/clip_art/computers/Server_Rack_128x128.png" vertex="1" parent="1">
          <mxGeometry x="-170" y="130" width="80" height="80" as="geometry" />
        </mxCell>
        <mxCell id="MItrXDMZAQSZTM3Yo3Le-31" value="192.168.0.0/16" style="text;html=1;strokeColor=none;fillColor=none;align=center;verticalAlign=middle;whiteSpace=wrap;rounded=0;" vertex="1" parent="1">
          <mxGeometry x="-265" y="450" width="60" height="30" as="geometry" />
        </mxCell>
        <mxCell id="MItrXDMZAQSZTM3Yo3Le-32" value="" style="sketch=0;outlineConnect=0;fontColor=#232F3E;gradientColor=none;fillColor=#8C4FFF;strokeColor=none;dashed=0;verticalLabelPosition=bottom;verticalAlign=top;align=center;html=1;fontSize=12;fontStyle=0;aspect=fixed;pointerEvents=1;shape=mxgraph.aws4.virtual_gateway;" vertex="1" parent="1">
          <mxGeometry x="40" y="182" width="78" height="78" as="geometry" />
        </mxCell>
        <mxCell id="MItrXDMZAQSZTM3Yo3Le-33" value="Virtual Gateway" style="text;html=1;strokeColor=none;fillColor=none;align=center;verticalAlign=middle;whiteSpace=wrap;rounded=0;" vertex="1" parent="1">
          <mxGeometry x="80" y="270" width="60" height="30" as="geometry" />
        </mxCell>
        <mxCell id="MItrXDMZAQSZTM3Yo3Le-35" value="" style="outlineConnect=0;dashed=0;verticalLabelPosition=bottom;verticalAlign=top;align=center;html=1;shape=mxgraph.aws3.customer_gateway;fillColor=#F58534;gradientColor=none;" vertex="1" parent="1">
          <mxGeometry x="-180" y="288" width="69" height="72" as="geometry" />
        </mxCell>
        <mxCell id="MItrXDMZAQSZTM3Yo3Le-37" value="Customer Gateway" style="text;html=1;strokeColor=none;fillColor=none;align=center;verticalAlign=middle;whiteSpace=wrap;rounded=0;" vertex="1" parent="1">
          <mxGeometry x="-175.5" y="360" width="60" height="30" as="geometry" />
        </mxCell>
        <mxCell id="MItrXDMZAQSZTM3Yo3Le-38" value="" style="endArrow=none;html=1;rounded=0;exitX=1;exitY=0.5;exitDx=0;exitDy=0;exitPerimeter=0;entryX=-0.005;entryY=0.6;entryDx=0;entryDy=0;entryPerimeter=0;" edge="1" parent="1" source="MItrXDMZAQSZTM3Yo3Le-35" target="MItrXDMZAQSZTM3Yo3Le-32">
          <mxGeometry width="50" height="50" relative="1" as="geometry">
            <mxPoint x="-30" y="210" as="sourcePoint" />
            <mxPoint x="20" y="160" as="targetPoint" />
          </mxGeometry>
        </mxCell>
        <mxCell id="MItrXDMZAQSZTM3Yo3Le-39" value="VPN Tunnel" style="text;html=1;strokeColor=none;fillColor=none;align=center;verticalAlign=middle;whiteSpace=wrap;rounded=0;" vertex="1" parent="1">
          <mxGeometry x="-50" y="280" width="60" height="30" as="geometry" />
        </mxCell>
        <mxCell id="MItrXDMZAQSZTM3Yo3Le-41" value="" style="outlineConnect=0;dashed=0;verticalLabelPosition=bottom;verticalAlign=top;align=center;html=1;shape=mxgraph.aws3.route_table;fillColor=#F58536;gradientColor=none;" vertex="1" parent="1">
          <mxGeometry x="192.5" y="390" width="75" height="69" as="geometry" />
        </mxCell>
      </root>
    </mxGraphModel>
  </diagram>
</mxfile>
